<?xml version="1.0" encoding="utf-8"?>
<!-- Generator: Adobe Illustrator 25.4.1, SVG Export Plug-In . SVG Version: 6.00 Build 0)  -->
<svg version="1.1" id="Layer_1" xmlns="http://www.w3.org/2000/svg" xmlns:xlink="http://www.w3.org/1999/xlink" x="0px" y="0px"
	 viewBox="0 0 367.1 649" style="enable-background:new 0 0 367.1 649;" xml:space="preserve">
<style type="text/css">
	.st0{fill:#FFFFFF;filter:url(#Adobe_OpacityMaskFilter);}
	
		.st1{mask:url(#path-1-outside-1_341_618_00000155105583336680456640000004050069933611986061_);fill:none;stroke:#000000;stroke-width:2;stroke-miterlimit:10;}
	.st2{fill:#B9FF66;}
	.st3{fill:#191A23;}
</style>
<defs>
	<filter id="Adobe_OpacityMaskFilter" filterUnits="userSpaceOnUse" x="41.6" y="0.4" width="650" height="648.3">
		<feColorMatrix  type="matrix" values="1 0 0 0 0  0 1 0 0 0  0 0 1 0 0  0 0 0 1 0"/>
	</filter>
</defs>
<mask maskUnits="userSpaceOnUse" x="41.6" y="0.4" width="650" height="648.3" id="path-1-outside-1_341_618_00000155105583336680456640000004050069933611986061_">
	<rect x="40.7" y="-0.5" class="st0" width="651" height="650"/>
	<path d="M366.6,162.1L387.1,0.5l-0.2,162.8L427.4,5.6L407,167.2l60-151.5l-40.5,157.9L505,30.6l-60.2,151.5l95.9-131.9l-78.7,142.9
		L573.6,74.3l-95.8,131.7l125.6-103.8L491.8,220.9l137.7-87.2L503.7,237.5l147.6-69.4l-137.7,87.2L668.7,205l-147.6,69.4l160.2-30.6
		l-155.1,50.4L689,283.8l-160.2,30.5l162.8,10.2l-162.8,10.2L689,365.1l-162.8-10.2l155.1,50.2l-160.2-30.5L668.7,444l-155.1-50.4
		l137.7,87.2l-147.6-69.4l125.8,103.8l-137.7-87.4l111.7,118.8l-125.6-104l95.8,131.9L462.1,455.8l78.7,142.7l-95.9-131.9L505,618.2
		l-78.5-142.7L467,633.2l-60-151.5l20.4,161.7l-40.5-157.9l0.2,163l-20.4-161.7l-20.4,161.7v-163l-40.5,157.9l20.6-161.7l-60,151.5
		l40.5-157.7l-78.5,142.7l60.2-151.5l-95.9,131.9l78.7-142.7L159.5,574.7l95.9-131.9l-125.6,104l111.7-118.8l-137.7,87.4
		l125.8-103.8L81.9,480.9l137.7-87.2L64.5,444l147.6-69.4L51.9,405.1L207,354.9L44.3,365.1l160.2-30.5L41.7,324.4l162.8-10.2
		L44.3,283.8L207,294.1L51.9,243.7l160.2,30.6L64.5,205l155.1,50.4L81.9,168.1l147.6,69.4L103.8,133.7l137.7,87.2L129.8,102.3
		l125.6,103.8L159.5,74.3l111.7,118.8L192.5,50.3l95.9,131.9L228.3,30.6l78.5,142.9L266.3,15.7l60,151.5L305.7,5.6l40.5,157.7V0.5
		L366.6,162.1z"/>
</mask>
<path class="st1" d="M366.6,162.1L387.1,0.5l-0.2,162.8L427.4,5.6L407,167.2l60-151.5l-40.5,157.9L505,30.6l-60.2,151.5l95.9-131.9
	l-78.7,142.9L573.6,74.3l-95.8,131.7l125.6-103.8L491.8,220.9l137.7-87.2L503.7,237.5l147.6-69.4l-137.7,87.2L668.7,205l-147.6,69.4
	l160.2-30.6l-155.1,50.4L689,283.8l-160.2,30.5l162.8,10.2l-162.8,10.2L689,365.1l-162.8-10.2l155.1,50.2l-160.2-30.5L668.7,444
	l-155.1-50.4l137.7,87.2l-147.6-69.4l125.8,103.8l-137.7-87.4l111.7,118.8l-125.6-104l95.8,131.9L462.1,455.8l78.7,142.7
	l-95.9-131.9L505,618.2l-78.5-142.7L467,633.2l-60-151.5l20.4,161.7l-40.5-157.9l0.2,163l-20.4-161.7l-20.4,161.7v-163l-40.5,157.9
	l20.6-161.7l-60,151.5l40.5-157.7l-78.5,142.7l60.2-151.5l-95.9,131.9l78.7-142.7L159.5,574.7l95.9-131.9l-125.6,104l111.7-118.8
	l-137.7,87.4l125.8-103.8L81.9,480.9l137.7-87.2L64.5,444l147.6-69.4L51.9,405.1L207,354.9L44.3,365.1l160.2-30.5L41.7,324.4
	l162.8-10.2L44.3,283.8L207,294.1L51.9,243.7l160.2,30.6L64.5,205l155.1,50.4L81.9,168.1l147.6,69.4L103.8,133.7l137.7,87.2
	L129.8,102.3l125.6,103.8L159.5,74.3l111.7,118.8L192.5,50.3l95.9,131.9L228.3,30.6l78.5,142.9L266.3,15.7l60,151.5L305.7,5.6
	l40.5,157.7V0.5L366.6,162.1z"/>
<path class="st2" d="M95.7,470.6l45.7,24.9l-45.7,25.1l-25,45.6l-25-45.6L0,495.5l45.7-24.9l25-45.8L95.7,470.6z"/>
<path class="st3" d="M217.1,244.1l81.7,44.5l-81.7,44.9l-44.7,81.5l-44.7-81.5l-81.7-44.9l81.7-44.5l44.7-81.9L217.1,244.1z"/>
</svg>
