<svg xmlns="http://www.w3.org/2000/svg" viewBox="0 0 500 500"><g id="freepik--background-simple--inject-106"><path d="M467.33,299.94c-13.18,39.94-41.57,83.71-83.34,98-63.12,21.53-68.76,73.3-183.32,73a230.62,230.62,0,0,1-49.74-5.34,192,192,0,0,1-23.55-6.84C59.52,434.19,22.36,376,17.06,313.76c-7-81.82,48.69-123.1,85-147.41S179.7,51.66,292.32,51.12a224.21,224.21,0,0,1,51.12,5.46c38.24,8.78,77.59,30,101.23,62.21q2.65,3.63,5.11,7.44C481.66,175.83,485.29,245.5,467.33,299.94Z" style="fill:#B9FF66"></path><path d="M467.33,299.94c-13.18,39.94-41.57,83.71-83.34,98-63.12,21.53-68.76,73.3-183.32,73a230.62,230.62,0,0,1-49.74-5.34,192,192,0,0,1-23.55-6.84C59.52,434.19,22.36,376,17.06,313.76c-7-81.82,48.69-123.1,85-147.41S179.7,51.66,292.32,51.12a224.21,224.21,0,0,1,51.12,5.46c38.24,8.78,77.59,30,101.23,62.21q2.65,3.63,5.11,7.44C481.66,175.83,485.29,245.5,467.33,299.94Z" style="fill:#fff;opacity:0.7000000000000001"></path></g><g id="freepik--Floor--inject-106"><path d="M482.69,453.63H20.94a.51.51,0,0,1-.5-.5.5.5,0,0,1,.5-.5H482.69a.5.5,0,0,1,.5.5A.51.51,0,0,1,482.69,453.63Z" style="fill:#263238"></path></g><g id="freepik--Plants--inject-106"><path d="M38.16,389.86c2.16.94,7.42.82,7.43.82s-1.14-3.44-1.24-3.65c-1.15-2.42-4.81-6.41-7.78-6a3.55,3.55,0,0,0-2.85,4.45C34.22,387.53,36.33,389.06,38.16,389.86Z" style="fill:#263238"></path><path d="M40,405.12c2.23.32,6.93-1,7.31-1.15a61.86,61.86,0,0,0,2.85,7.89c.64,1.49,1.34,3,2.06,4.46l-.88-1.26c-1.75-2-6.33-4.91-9.09-3.73a3.55,3.55,0,0,0-1.58,5c1,1.86,3.47,2.78,5.45,3.06s6-.79,7.1-1.09L54,420c1.36,2.71,2.73,5.41,4,8.1.45.95.85,1.9,1.26,2.84l-.76-1.09c-1.76-2-6.33-4.91-9.1-3.73a3.54,3.54,0,0,0-1.57,5c1,1.86,3.46,2.77,5.44,3.06s5.65-.68,6.91-1c.39,1,.78,2,1.11,2.93.22.67.47,1.3.64,2s.37,1.34.56,2c.31,1.28.63,2.6.9,3.86.19.87.36,1.71.53,2.55-.43-.95-1.32-2.78-1.41-2.93-1.42-2.27-5.51-5.81-8.42-5.07a3.56,3.56,0,0,0-2.32,4.75c.73,2,3,3.26,4.92,3.85,2.11.64,6.77.05,7.35,0,.28,1.39.54,2.75.76,4,.12.68.23,1.31.33,2H67c-.14-.74-.28-1.5-.44-2.29-.28-1.42-.6-2.93-1-4.47a39.82,39.82,0,0,0,4.1-1.93c1.54,1.66,5.47,3.61,6,3.86-.53,1.31-1.07,2.59-1.59,3.78l-.46,1.05h2l.15-.35c.55-1.34,1.11-2.78,1.67-4.26.56.12,5.18,1.06,7.33.57,2-.44,4.32-1.54,5.19-3.47a3.55,3.55,0,0,0-2-4.91c-2.84-1-7.18,2.27-8.77,4.43-.1.13-1,1.62-1.49,2.57.23-.6.45-1.19.68-1.82.45-1.23.87-2.48,1.32-3.82l.6-2c.21-.66.35-1.38.53-2.08.39-1.62.7-3.29,1-5,1.08.39,5,1.74,7,1.6s4.5-.87,5.66-2.65a3.56,3.56,0,0,0-1.2-5.15c-2.66-1.37-7.45,1.16-9.34,3.05-.12.12-1.33,1.63-2,2.47.16-1,.32-2,.45-3.05.37-3,.65-6,.94-9,.09-.93.19-1.85.29-2.77.38.15,4.95,1.85,7.2,1.69,2-.14,4.5-.87,5.65-2.65a3.55,3.55,0,0,0-1.19-5.15c-2.67-1.37-7.45,1.16-9.35,3-.14.15-1.88,2.32-2.29,2.89.21-2,.44-4,.75-6a63.45,63.45,0,0,1,1.73-7.92c.18.06,4.94,1.86,7.24,1.7,2-.14,4.5-.87,5.66-2.65a3.56,3.56,0,0,0-1.2-5.15c-2.66-1.37-7.44,1.16-9.34,3.05-.15.15-2,2.49-2.33,2.94,0-.15.07-.31.12-.46a45.36,45.36,0,0,1,3.14-7.5c.68-1.33,1.41-2.57,2.14-3.76.86.42,4.77,2.32,6.86,2.41s4.57-.38,5.91-2a3.56,3.56,0,0,0-.62-5.25c-2.5-1.66-7.53.33-9.63,2-.11.1-1.17,1.15-1.92,1.92l1-1.59c1.26-1.89,2.52-3.54,3.66-5,.65-.83,1.25-1.56,1.82-2.24,1.06,0,5.3-.14,7.16-1s3.88-2.44,4.32-4.51a3.56,3.56,0,0,0-3-4.38c-3-.32-6.53,3.77-7.62,6.22-.09.21-1.18,3.69-1.13,3.69h.06c-.56.64-1.16,1.33-1.8,2.1-1.16,1.44-2.47,3.07-3.77,4.94A63.32,63.32,0,0,0,89,395.11a46.48,46.48,0,0,0-3.34,7.52l0,.1c0-.88,0-3.34,0-3.53-.34-2.65-2.57-7.59-5.52-8.13a3.55,3.55,0,0,0-4.1,3.34c-.17,2.11,1.36,4.22,2.85,5.56,1.69,1.5,6.36,2.95,6.73,3.07a63.38,63.38,0,0,0-2,8.15c-.29,1.61-.53,3.23-.75,4.86,0-.76,0-1.44,0-1.53-.34-2.66-2.57-7.59-5.52-8.13a3.54,3.54,0,0,0-4.09,3.33C73,411.84,74.51,414,76,415.28s5.47,2.68,6.52,3c-.07.63-.16,1.25-.23,1.88-.36,3-.71,6-1.14,9-.15,1-.34,2.05-.52,3.06,0-.67,0-1.24,0-1.33-.34-2.65-2.57-7.59-5.52-8.13A3.55,3.55,0,0,0,71,426.07c-.18,2.11,1.35,4.22,2.85,5.56s5.08,2.54,6.33,2.94c-.22,1-.43,2.07-.69,3.07-.19.67-.33,1.33-.56,2s-.43,1.32-.64,2c-.45,1.24-.91,2.52-1.38,3.72-.32.83-.64,1.62-1,2.42.16-1,.44-3.05.44-3.22a13.81,13.81,0,0,0-1.85-6.71,3.41,3.41,0,0,0,0-.78,3.56,3.56,0,0,0-4.34-3c-2.9.78-4.74,5.87-4.87,8.54,0,.16.09,1.88.17,3-.14-.63-.28-1.25-.43-1.9-.31-1.28-.65-2.55-1-3.92l-.6-2c-.19-.67-.47-1.35-.7-2-.58-1.57-1.23-3.13-1.93-4.69,1.12-.26,5.09-1.28,6.69-2.5s3.27-3.21,3.25-5.33a3.55,3.55,0,0,0-3.83-3.64c-3,.33-5.57,5.08-6.11,7.7,0,.17-.21,2.09-.29,3.15-.43-.93-.85-1.86-1.31-2.79-1.33-2.69-2.77-5.36-4.18-8-.44-.82-.86-1.64-1.29-2.46.4-.09,5.15-1.19,6.94-2.57,1.58-1.21,3.27-3.21,3.25-5.32a3.55,3.55,0,0,0-3.83-3.64c-3,.32-5.57,5.08-6.12,7.7,0,.2-.29,3-.32,3.68-.94-1.81-1.86-3.62-2.69-5.44A63.71,63.71,0,0,1,48,403.94c.19,0,5.15-1.17,7-2.57,1.59-1.22,3.27-3.21,3.25-5.33a3.54,3.54,0,0,0-3.83-3.63c-3,.32-5.57,5.07-6.11,7.7-.05.2-.31,3.18-.32,3.73l-.16-.45a46.32,46.32,0,0,1-1.52-8c-.16-1.49-.24-2.92-.28-4.32.94-.11,5.26-.69,7-1.77s3.61-2.83,3.82-4.94a3.54,3.54,0,0,0-3.41-4c-3,0-6.09,4.43-6.92,7-.05.14-.35,1.6-.55,2.66,0-.63,0-1.28,0-1.88,0-2.27.15-4.35.29-6.19.09-1,.19-2,.29-2.87.87-.59,4.34-3,5.41-4.79s1.89-4.18,1.12-6.15a3.56,3.56,0,0,0-4.89-2c-2.67,1.38-3.37,6.75-2.93,9.39,0,.23,1,3.73,1.09,3.7l.06,0c-.12.85-.24,1.76-.34,2.75-.19,1.84-.38,3.92-.43,6.2a61.89,61.89,0,0,0,.18,7.36,46.52,46.52,0,0,0,1.36,8.12l0,.09c-.47-.74-1.86-2.77-2-2.91-1.75-2-6.33-4.91-9.09-3.74a3.54,3.54,0,0,0-1.57,5C35.56,403.91,38,404.83,40,405.12Z" style="fill:#263238"></path><path d="M91.43,391s1-3.5,1-3.73c.37-2.65-.47-8-3.18-9.3a3.55,3.55,0,0,0-4.83,2.14c-.72,2,.2,4.43,1.28,6.11C87,388.21,91.43,391,91.43,391Z" style="fill:#263238"></path><path d="M180.19,423.92a11.58,11.58,0,0,0,3.43.38s-.52-1.59-.57-1.68c-.53-1.12-2.22-3-3.59-2.78a1.64,1.64,0,0,0-1.31,2.06A3.4,3.4,0,0,0,180.19,423.92Z" style="fill:#263238"></path><path d="M181,431a11.54,11.54,0,0,0,3.38-.53,29.48,29.48,0,0,0,1.31,3.64c.3.69.62,1.37.95,2.06-.19-.29-.37-.55-.4-.58-.81-.94-2.92-2.27-4.2-1.73a1.63,1.63,0,0,0-.72,2.33,3.38,3.38,0,0,0,2.51,1.41,10.68,10.68,0,0,0,3.28-.5c.13.26.25.53.38.79.63,1.25,1.26,2.49,1.85,3.73.2.44.39.88.58,1.32-.18-.26-.33-.48-.36-.51-.8-.93-2.92-2.26-4.19-1.72a1.64,1.64,0,0,0-.73,2.33,3.43,3.43,0,0,0,2.51,1.41,10.44,10.44,0,0,0,3.19-.48c.18.46.36.91.52,1.36s.21.6.29.91.17.62.26.92c.14.59.29,1.2.41,1.78.09.41.17.79.25,1.18-.2-.44-.61-1.28-.65-1.35-.66-1.05-2.55-2.68-3.89-2.34a1.63,1.63,0,0,0-1.07,2.19,3.44,3.44,0,0,0,2.27,1.78,11.32,11.32,0,0,0,3.39,0c.13.64.25,1.27.36,1.86.05.32.1.61.15.91h.85c-.06-.34-.12-.69-.2-1.06-.13-.65-.28-1.35-.44-2.06a19.93,19.93,0,0,0,1.9-.89,12.39,12.39,0,0,0,2.76,1.78c-.25.61-.5,1.19-.74,1.75l-.21.48h.9c0-.06.05-.11.07-.16.25-.62.51-1.28.77-2a10.94,10.94,0,0,0,3.39.26,3.4,3.4,0,0,0,2.39-1.6,1.63,1.63,0,0,0-.9-2.26c-1.32-.45-3.32,1.05-4,2-.05.06-.45.75-.69,1.19.1-.28.21-.55.31-.84.21-.57.4-1.15.61-1.77.09-.3.19-.61.28-.92s.16-.63.24-1c.18-.75.33-1.52.46-2.3a10.93,10.93,0,0,0,3.21.74,3.43,3.43,0,0,0,2.61-1.22,1.64,1.64,0,0,0-.55-2.38c-1.23-.63-3.44.54-4.32,1.41-.05.05-.61.75-.91,1.14q.12-.71.21-1.41c.17-1.38.3-2.77.44-4.16,0-.43.08-.85.13-1.28a11.34,11.34,0,0,0,3.32.78,3.4,3.4,0,0,0,2.61-1.22,1.64,1.64,0,0,0-.55-2.38c-1.23-.63-3.44.54-4.31,1.41-.07.07-.87,1.07-1.06,1.34.09-.94.2-1.87.34-2.79a29.86,29.86,0,0,1,.8-3.65,11.55,11.55,0,0,0,3.34.78,3.39,3.39,0,0,0,2.61-1.22,1.64,1.64,0,0,0-.55-2.38c-1.23-.63-3.43.54-4.31,1.41-.07.07-.93,1.15-1.07,1.36,0-.07,0-.15.05-.22a21.64,21.64,0,0,1,1.45-3.46c.32-.61.65-1.18,1-1.73a11.24,11.24,0,0,0,3.16,1.11,3.39,3.39,0,0,0,2.73-.93,1.63,1.63,0,0,0-.28-2.42c-1.16-.77-3.48.15-4.45.92l-.89.89.47-.73c.58-.88,1.17-1.64,1.69-2.31.3-.38.58-.72.84-1a11.12,11.12,0,0,0,3.31-.47,3.44,3.44,0,0,0,2-2.08,1.64,1.64,0,0,0-1.37-2c-1.38-.15-3,1.74-3.52,2.87,0,.1-.55,1.7-.52,1.7h0c-.26.3-.54.62-.83,1-.54.66-1.14,1.42-1.74,2.28a26.48,26.48,0,0,0-1.81,2.88,20.35,20.35,0,0,0-1.54,3.47.06.06,0,0,0,0,0c0-.4,0-1.54,0-1.62-.16-1.23-1.18-3.51-2.55-3.76a1.64,1.64,0,0,0-1.89,1.54,3.43,3.43,0,0,0,1.32,2.57,11.72,11.72,0,0,0,3.11,1.42,27.9,27.9,0,0,0-.92,3.76c-.13.74-.24,1.49-.34,2.24,0-.35,0-.66,0-.7-.16-1.23-1.18-3.51-2.55-3.76a1.64,1.64,0,0,0-1.89,1.54,3.43,3.43,0,0,0,1.32,2.57,11.23,11.23,0,0,0,3,1.39c0,.29-.07.58-.11.87-.16,1.39-.32,2.77-.52,4.13-.07.48-.16.95-.24,1.41,0-.31,0-.57,0-.61-.16-1.23-1.19-3.5-2.55-3.75a1.63,1.63,0,0,0-1.89,1.54,3.41,3.41,0,0,0,1.32,2.56,10.12,10.12,0,0,0,2.92,1.36c-.1.48-.2,1-.32,1.42-.09.31-.15.61-.26.92s-.19.61-.29.91c-.21.57-.42,1.16-.64,1.72-.15.38-.29.75-.44,1.12.07-.48.2-1.41.2-1.49a6.38,6.38,0,0,0-.85-3.1c0-.12,0-.24,0-.36a1.64,1.64,0,0,0-2-1.39c-1.34.36-2.19,2.71-2.25,3.94,0,.07.05.87.08,1.37-.06-.29-.13-.58-.2-.87-.14-.6-.3-1.18-.46-1.81-.1-.31-.19-.61-.28-.92s-.22-.62-.32-.94c-.27-.72-.57-1.44-.89-2.16a10.5,10.5,0,0,0,3.08-1.16,3.43,3.43,0,0,0,1.51-2.46,1.64,1.64,0,0,0-1.77-1.67c-1.38.15-2.58,2.34-2.83,3.55,0,.08-.09,1-.13,1.45-.2-.43-.39-.86-.6-1.29-.62-1.24-1.28-2.47-1.93-3.71l-.6-1.13a11.36,11.36,0,0,0,3.2-1.19,3.43,3.43,0,0,0,1.51-2.46,1.64,1.64,0,0,0-1.77-1.67c-1.38.15-2.58,2.34-2.83,3.55,0,.09-.13,1.37-.14,1.7-.44-.84-.86-1.67-1.25-2.51a29,29,0,0,1-1.35-3.5,11.35,11.35,0,0,0,3.22-1.18,3.5,3.5,0,0,0,1.51-2.46,1.64,1.64,0,0,0-1.78-1.68c-1.37.15-2.57,2.34-2.82,3.55,0,.1-.14,1.48-.14,1.73a1.8,1.8,0,0,1-.08-.21,21.92,21.92,0,0,1-.7-3.69c-.07-.69-.11-1.35-.13-2a11.16,11.16,0,0,0,3.25-.82,3.44,3.44,0,0,0,1.77-2.28,1.64,1.64,0,0,0-1.58-1.86c-1.38,0-2.81,2-3.19,3.22,0,.07-.16.74-.26,1.23,0-.29,0-.59,0-.87,0-1.05.07-2,.13-2.85,0-.49.09-.92.14-1.33a10.94,10.94,0,0,0,2.49-2.21,3.4,3.4,0,0,0,.52-2.84,1.65,1.65,0,0,0-2.26-.93c-1.23.64-1.55,3.12-1.35,4.34,0,.1.49,1.72.51,1.7h0c-.05.39-.11.81-.16,1.27-.08.85-.17,1.81-.19,2.86a28.09,28.09,0,0,0,.08,3.39,21.45,21.45,0,0,0,.63,3.75s0,0,0,0c-.22-.34-.86-1.27-.91-1.34-.81-.94-2.93-2.27-4.2-1.73a1.64,1.64,0,0,0-.73,2.33A3.45,3.45,0,0,0,181,431Z" style="fill:#263238"></path><path d="M204.78,424.46s.45-1.62.46-1.72c.17-1.23-.22-3.69-1.47-4.3a1.65,1.65,0,0,0-2.23,1,3.44,3.44,0,0,0,.59,2.82A11.8,11.8,0,0,0,204.78,424.46Z" style="fill:#263238"></path></g><g id="freepik--Clouds--inject-106"><path d="M317.62,95.93h-152a.49.49,0,0,1-.49-.41.5.5,0,0,1,.3-.56c5.21-2.08,15.51-6.48,17.25-8.22a12.92,12.92,0,0,0,1.7-2.68c1.92-3.56,4.83-9,12.87-11.82,5.91-2.11,10.25-.77,13.13.11,2.61.81,3.47,1,4-.55,1.12-3.35,3.44-10.32,9.66-14a.49.49,0,0,1,.68.18.51.51,0,0,1-.18.69c-5.89,3.44-8.13,10.17-9.21,13.4-.85,2.54-2.78,2-5.22,1.2-2.92-.9-6.91-2.12-12.5-.13-7.68,2.74-10.48,7.93-12.33,11.36a13.22,13.22,0,0,1-1.87,2.91c-1.78,1.78-10.84,5.66-15.22,7.48h149.4a.5.5,0,0,1,.5.5A.5.5,0,0,1,317.62,95.93Z" style="fill:#263238"></path><path d="M343.6,95.93H325.19a.51.51,0,0,1-.5-.5.5.5,0,0,1,.5-.5h18c.4-2.6,2.25-16.84-3.75-24.17-3-3.61-7.52-3.17-12.36-2.69-5.7.56-11.59,1.14-14.2-5.72-.77-1.09-14.06-19.5-29.89-20.94-14.3-1.3-21.21,8.23-26.26,15.18-.72,1-1.41,1.95-2.07,2.8-3.13,4-5.66,2.65-9.16.76-3-1.6-6.65-3.6-12.43-3.6a.5.5,0,0,1-.5-.5.5.5,0,0,1,.5-.5A25.23,25.23,0,0,1,246,59.27c3.42,1.84,5.29,2.86,7.9-.49.66-.85,1.34-1.78,2.06-2.77,5.18-7.16,12.28-16.94,27.15-15.6,16.7,1.52,30.52,21.22,30.66,21.42a.37.37,0,0,1,0,.11c2.33,6.2,7.61,5.68,13.19,5.13,4.89-.48,9.94-1,13.23,3.05,6.89,8.41,4,24.71,3.89,25.4A.5.5,0,0,1,343.6,95.93Z" style="fill:#263238"></path><path d="M249,89.11h-.06a.5.5,0,0,1-.44-.55,12.24,12.24,0,0,1,3.67-7,.5.5,0,0,1,.71,0,.51.51,0,0,1,0,.71,11.51,11.51,0,0,0-3.36,6.4A.5.5,0,0,1,249,89.11Z" style="fill:#263238"></path><path d="M269.94,81a22.27,22.27,0,0,1-4.8-.73c-2.72-.62-5.53-1.25-8.45-.28a.5.5,0,0,1-.64-.32.51.51,0,0,1,.32-.63c3.19-1.06,6.14-.39,9,.25,3.37.77,6.29,1.43,9-.91,1.87-1.61,2.44-4.63,3.05-7.83,1-5.38,2.19-11.48,10.11-12,12.19-.76,22.66,9.55,23.1,10a.5.5,0,0,1,0,.71.51.51,0,0,1-.71,0c-.1-.1-10.59-10.43-22.33-9.7-7.14.45-8.18,5.9-9.18,11.17-.65,3.38-1.26,6.57-3.39,8.4A7.44,7.44,0,0,1,269.94,81Z" style="fill:#263238"></path><path d="M133.4,130.34H34.12a.49.49,0,0,1-.49-.41.5.5,0,0,1,.3-.56C36.66,128.28,44,125.2,45.14,124a8,8,0,0,0,1.08-1.71c1.27-2.35,3.2-5.91,8.51-7.8a12.58,12.58,0,0,1,8.69.07c1.83.56,2.12.53,2.38-.26.74-2.2,2.27-6.8,6.39-9.21a.51.51,0,0,1,.68.18.51.51,0,0,1-.18.69c-3.79,2.21-5.24,6.57-5.94,8.66-.61,1.82-2.07,1.37-3.63.89a11.56,11.56,0,0,0-8.06-.08,13.78,13.78,0,0,0-8,7.34,8.46,8.46,0,0,1-1.25,1.94c-1.09,1.09-6.12,3.3-9.19,4.59H133.4a.5.5,0,0,1,.5.5A.51.51,0,0,1,133.4,130.34Z" style="fill:#263238"></path><path d="M150.37,130.34h-12a.51.51,0,0,1-.5-.5.5.5,0,0,1,.5-.5h11.6c.3-2,1.34-10.9-2.43-15.51-1.87-2.29-4.81-2-7.93-1.69-3.78.37-7.69.75-9.44-3.83-.61-.86-9.2-12.67-19.39-13.59-9.24-.84-13.73,5.34-17,9.85-.47.65-.92,1.27-1.36,1.83-2.13,2.74-3.93,1.77-6.2.54a15.67,15.67,0,0,0-8-2.33.5.5,0,0,1-.5-.5.5.5,0,0,1,.5-.5,16.69,16.69,0,0,1,8.51,2.45c2.29,1.24,3.33,1.8,4.94-.27.43-.55.87-1.16,1.34-1.81,3.41-4.7,8.08-11.15,17.9-10.26,11,1,19.79,13.53,20.15,14.07a.24.24,0,0,1,.06.11c1.47,3.92,4.7,3.61,8.44,3.24,3.24-.32,6.58-.65,8.79,2.06,4.55,5.55,2.66,16.27,2.58,16.73A.5.5,0,0,1,150.37,130.34Z" style="fill:#263238"></path><path d="M88.54,125.88h-.06a.5.5,0,0,1-.44-.55,8.17,8.17,0,0,1,2.45-4.69.5.5,0,0,1,.71,0,.51.51,0,0,1,0,.71A7.3,7.3,0,0,0,89,125.44.49.49,0,0,1,88.54,125.88Z" style="fill:#263238"></path><path d="M102.23,120.59a14.4,14.4,0,0,1-3.16-.48,9.8,9.8,0,0,0-5.43-.19.5.5,0,1,1-.32-.94,10.73,10.73,0,0,1,6,.15c2.16.49,4,.92,5.74-.56,1.18-1,1.55-2.95,1.94-5,.68-3.58,1.45-7.63,6.76-8,8.06-.51,14.94,6.29,15.23,6.58a.5.5,0,1,1-.71.71c-.07-.07-6.87-6.76-14.45-6.29-4.54.29-5.17,3.62-5.85,7.16-.42,2.23-.83,4.35-2.27,5.58A5.07,5.07,0,0,1,102.23,120.59Z" style="fill:#263238"></path><path d="M317.09,162.85H247.86a.5.5,0,0,1-.19-1c2.63-1,7.07-3,7.77-3.68a6.25,6.25,0,0,0,.73-1.16,10.31,10.31,0,0,1,6-5.51,8.89,8.89,0,0,1,6.15,0c1.32.41,1.34.32,1.48-.08.52-1.55,1.6-4.8,4.52-6.5a.5.5,0,1,1,.5.86c-2.59,1.52-3.59,4.52-4.07,6s-1.67,1-2.72.72a7.92,7.92,0,0,0-5.52-.06,9.45,9.45,0,0,0-5.47,5,6.31,6.31,0,0,1-.9,1.39c-.7.7-3.63,2-5.78,2.95h66.72a.5.5,0,0,1,.5.5A.5.5,0,0,1,317.09,162.85Z" style="fill:#263238"></path><path d="M328.93,162.85h-8.39a.5.5,0,0,1-.5-.5.5.5,0,0,1,.5-.5h8c.22-1.61.84-7.49-1.69-10.57-1.25-1.53-3.26-1.34-5.39-1.13-2.56.25-5.47.54-6.74-2.75-.5-.69-6.41-8.76-13.4-9.39-6.37-.59-9.45,3.69-11.71,6.8-.34.46-.65.89-1,1.28-1.56,2-2.93,1.28-4.51.42a10.82,10.82,0,0,0-5.54-1.6.5.5,0,0,1-.5-.5.5.5,0,0,1,.5-.5,11.74,11.74,0,0,1,6,1.72c1.56.85,2.21,1.19,3.26-.15.29-.38.6-.81.93-1.26,2.4-3.31,5.69-7.84,12.61-7.21,7.74.7,13.91,9.5,14.17,9.87a.54.54,0,0,1,0,.11c1,2.63,3.19,2.42,5.73,2.17,2.19-.22,4.67-.46,6.27,1.48,3.21,3.93,1.89,11.48,1.83,11.79A.51.51,0,0,1,328.93,162.85Z" style="fill:#263238"></path><path d="M285.81,159.74h-.06a.5.5,0,0,1-.44-.55,5.88,5.88,0,0,1,1.76-3.37.49.49,0,0,1,.7,0,.5.5,0,0,1,0,.71,4.88,4.88,0,0,0-1.45,2.75A.5.5,0,0,1,285.81,159.74Z" style="fill:#263238"></path><path d="M295.36,156.05a10.12,10.12,0,0,1-2.24-.34,6.86,6.86,0,0,0-3.71-.14.49.49,0,1,1-.31-.94,7.58,7.58,0,0,1,4.24.1c1.52.35,2.73.62,3.87-.35.78-.67,1-2,1.3-3.41.46-2.43,1-5.44,4.86-5.68,5.68-.37,10.53,4.42,10.73,4.63a.48.48,0,0,1,0,.7.5.5,0,0,1-.71,0s-4.74-4.67-10-4.34c-3,.19-3.48,2.46-3.94,4.86-.3,1.59-.58,3.09-1.63,4A3.68,3.68,0,0,1,295.36,156.05Z" style="fill:#263238"></path></g><g id="freepik--Number--inject-106"><path d="M103.59,362.9V321.2H52.88V296.47L97.1,193.15h33.74v105h17.39V321.2H130.84v41.7Zm-26.4-64.76h26.4V224.37Z" style="fill:#263238"></path><path d="M130.84,363.4H103.59a.5.5,0,0,1-.5-.5V321.7H52.88a.5.5,0,0,1-.5-.5V296.47a.45.45,0,0,1,0-.2L96.64,193a.51.51,0,0,1,.46-.3h33.74a.5.5,0,0,1,.5.5V297.64h16.89a.5.5,0,0,1,.5.5V321.2a.5.5,0,0,1-.5.5H131.34v41.2A.5.5,0,0,1,130.84,363.4Zm-26.75-1h26.25V321.2a.5.5,0,0,1,.5-.5h16.89V298.64H130.84a.5.5,0,0,1-.5-.5V193.65H97.43L53.38,296.57V320.7h50.21a.5.5,0,0,1,.5.5Zm-.5-63.76H77.19a.47.47,0,0,1-.41-.21.46.46,0,0,1-.06-.45l26.4-73.77a.51.51,0,0,1,.56-.33.49.49,0,0,1,.41.49v73.77A.5.5,0,0,1,103.59,298.64Zm-25.69-1h25.19V227.25Z" style="fill:#263238"></path><path d="M207.75,365.42q-14.88,0-24.62-6.29a38.92,38.92,0,0,1-14.67-17.39q-4.94-11.12-4.93-25.57V240.93q0-14.88,4.72-26.09a37.58,37.58,0,0,1,14.46-17.5q9.75-6.28,25-6.29t25.05,6.29a37.58,37.58,0,0,1,14.46,17.5Q252,226,252,240.93v75.24q0,14.46-4.92,25.57a39,39,0,0,1-14.67,17.39Q222.63,365.42,207.75,365.42Zm0-24.94q6.5,0,9.64-4a21.76,21.76,0,0,0,4.2-9.64,61.78,61.78,0,0,0,1-11.11v-74.4a71.74,71.74,0,0,0-.94-11.63A20.88,20.88,0,0,0,217.6,220q-3.14-4-9.85-4t-9.85,4a21,21,0,0,0-4.08,9.75,71.75,71.75,0,0,0-.95,11.63v74.4A55.57,55.57,0,0,0,194,326.86a22.56,22.56,0,0,0,4.29,9.64Q201.47,340.48,207.75,340.48Z" style="fill:#263238"></path><path d="M207.75,365.92c-10,0-18.34-2.14-24.89-6.37A39.54,39.54,0,0,1,168,341.94c-3.3-7.43-5-16.1-5-25.77V240.93c0-9.94,1.6-18.78,4.76-26.29a38.31,38.31,0,0,1,14.65-17.72c6.55-4.23,15.06-6.37,25.31-6.37s18.77,2.14,25.32,6.37a38.26,38.26,0,0,1,14.65,17.72c3.16,7.51,4.75,16.35,4.75,26.29v75.24a63.45,63.45,0,0,1-5,25.77,39.61,39.61,0,0,1-14.86,17.61C226.1,363.78,217.72,365.92,207.75,365.92Zm0-174.37c-10.05,0-18.39,2.09-24.77,6.21A37.27,37.27,0,0,0,168.71,215c-3.1,7.38-4.68,16.1-4.68,25.9v75.24a62.25,62.25,0,0,0,4.89,25.36,38.56,38.56,0,0,0,14.48,17.18c6.39,4.12,14.58,6.21,24.35,6.21s18-2.09,24.36-6.21a38.68,38.68,0,0,0,14.48-17.18,62.32,62.32,0,0,0,4.88-25.36V240.93c0-9.81-1.57-18.52-4.67-25.9a37.27,37.27,0,0,0-14.27-17.27C226.14,193.64,217.81,191.55,207.75,191.55Zm0,149.43c-4.33,0-7.63-1.4-9.82-4.17a23,23,0,0,1-4.39-9.85,55.76,55.76,0,0,1-1.17-11.21v-74.4a72.73,72.73,0,0,1,.95-11.71,21.46,21.46,0,0,1,4.19-10c2.19-2.77,5.63-4.17,10.24-4.17s8.06,1.4,10.25,4.17a21.45,21.45,0,0,1,4.18,10,72.73,72.73,0,0,1,.95,11.71v74.4a61.88,61.88,0,0,1-1,11.2,22.36,22.36,0,0,1-4.29,9.86C215.6,339.58,212.23,341,207.75,341Zm0-124.49c-4.28,0-7.47,1.28-9.45,3.79a20.4,20.4,0,0,0-4,9.52,71.89,71.89,0,0,0-.94,11.55v74.4a55.15,55.15,0,0,0,1.15,11,22.17,22.17,0,0,0,4.19,9.43c2,2.51,5,3.79,9,3.79s7.27-1.28,9.25-3.79a21.21,21.21,0,0,0,4.09-9.42,60.81,60.81,0,0,0,1-11v-74.4a72,72,0,0,0-.93-11.55,20.5,20.5,0,0,0-4-9.52C215.22,217.77,212,216.49,207.75,216.49Z" style="fill:#263238"></path><path d="M321.13,362.9V321.2H270.42V296.47l44.22-103.32h33.74v105h17.39V321.2H348.38v41.7Zm-26.4-64.76h26.4V224.37Z" style="fill:#263238"></path><path d="M348.38,363.4H321.13a.5.5,0,0,1-.5-.5V321.7H270.42a.5.5,0,0,1-.5-.5V296.47a.45.45,0,0,1,0-.2L314.18,193a.51.51,0,0,1,.46-.3h33.74a.5.5,0,0,1,.5.5V297.64h16.89a.5.5,0,0,1,.5.5V321.2a.5.5,0,0,1-.5.5H348.88v41.2A.5.5,0,0,1,348.38,363.4Zm-26.75-1h26.25V321.2a.5.5,0,0,1,.5-.5h16.89V298.64H348.38a.5.5,0,0,1-.5-.5V193.65H315L270.92,296.57V320.7h50.21a.5.5,0,0,1,.5.5Zm-.5-63.76h-26.4a.47.47,0,0,1-.41-.21.46.46,0,0,1-.06-.45l26.4-73.77a.51.51,0,0,1,.56-.33.49.49,0,0,1,.41.49v73.77A.5.5,0,0,1,321.13,298.64Zm-25.69-1h25.19V227.25Z" style="fill:#263238"></path><path d="M116.23,362.9V321.2H65.51V296.47l44.22-103.32h33.75v105h17.39V321.2H143.48v41.7ZM89.82,298.14h26.41V224.37Z" style="fill:#fff"></path><path d="M143.48,363.4H116.23a.5.5,0,0,1-.5-.5V321.7H65.51a.51.51,0,0,1-.5-.5V296.47a.65.65,0,0,1,0-.2L109.27,193a.51.51,0,0,1,.46-.3h33.75a.5.5,0,0,1,.5.5V297.64h16.89a.5.5,0,0,1,.5.5V321.2a.5.5,0,0,1-.5.5H144v41.2A.5.5,0,0,1,143.48,363.4Zm-26.75-1H143V321.2a.5.5,0,0,1,.5-.5h16.89V298.64H143.48a.5.5,0,0,1-.5-.5V193.65H110.06L66,296.57V320.7h50.22a.5.5,0,0,1,.5.5Zm-.5-63.76H89.82a.46.46,0,0,1-.4-.21.49.49,0,0,1-.07-.45l26.41-73.77a.51.51,0,0,1,.56-.33.49.49,0,0,1,.41.49v73.77A.5.5,0,0,1,116.23,298.64Zm-25.7-1h25.2V227.25Z" style="fill:#263238"></path><path d="M220.39,365.42q-14.88,0-24.63-6.29a39,39,0,0,1-14.67-17.39q-4.92-11.12-4.92-25.57V240.93q0-14.88,4.71-26.09a37.66,37.66,0,0,1,14.47-17.5q9.74-6.28,25-6.29t25,6.29a37.66,37.66,0,0,1,14.47,17.5q4.71,11.21,4.71,26.09v75.24q0,14.46-4.92,25.57A39,39,0,0,1,245,359.13Q235.27,365.42,220.39,365.42Zm0-24.94q6.5,0,9.64-4a21.63,21.63,0,0,0,4.19-9.64,60.91,60.91,0,0,0,1.05-11.11v-74.4a71.74,71.74,0,0,0-.94-11.63,20.88,20.88,0,0,0-4.09-9.75q-3.15-4-9.85-4t-9.85,4a20.88,20.88,0,0,0-4.09,9.75,71.74,71.74,0,0,0-.94,11.63v74.4a55.54,55.54,0,0,0,1.15,11.11,22.57,22.57,0,0,0,4.3,9.64Q214.11,340.48,220.39,340.48Z" style="fill:#fff"></path><path d="M220.39,365.92c-10,0-18.35-2.14-24.9-6.37a39.58,39.58,0,0,1-14.85-17.61c-3.3-7.43-5-16.1-5-25.77V240.93c0-9.94,1.6-18.78,4.75-26.29a38.31,38.31,0,0,1,14.65-17.72c6.55-4.23,15.07-6.37,25.32-6.37s18.77,2.14,25.32,6.37a38.31,38.31,0,0,1,14.65,17.72c3.15,7.51,4.75,16.35,4.75,26.29v75.24a63.29,63.29,0,0,1-5,25.77,39.53,39.53,0,0,1-14.85,17.61C238.74,363.78,230.36,365.92,220.39,365.92Zm0-174.37c-10,0-18.39,2.09-24.77,6.21A37.27,37.27,0,0,0,181.35,215c-3.11,7.38-4.68,16.09-4.68,25.9v75.24c0,9.53,1.64,18.06,4.88,25.36A38.58,38.58,0,0,0,196,358.71c6.38,4.12,14.58,6.21,24.35,6.21s18-2.09,24.35-6.21a38.64,38.64,0,0,0,14.49-17.18,62.32,62.32,0,0,0,4.88-25.36V240.93c0-9.81-1.57-18.52-4.67-25.9a37.35,37.35,0,0,0-14.28-17.27C238.78,193.64,230.44,191.55,220.39,191.55Zm0,149.43c-4.33,0-7.64-1.4-9.82-4.17a23.13,23.13,0,0,1-4.4-9.85A56.47,56.47,0,0,1,205,315.75v-74.4a72.73,72.73,0,0,1,1-11.71,21.46,21.46,0,0,1,4.19-10c2.19-2.77,5.63-4.17,10.24-4.17s8.06,1.4,10.24,4.17a21.46,21.46,0,0,1,4.19,10,72.73,72.73,0,0,1,1,11.71v74.4a61.91,61.91,0,0,1-1.06,11.2,22.13,22.13,0,0,1-4.29,9.86C228.24,339.58,224.86,341,220.39,341Zm0-124.49c-4.29,0-7.47,1.28-9.46,3.79a20.49,20.49,0,0,0-4,9.52,71.89,71.89,0,0,0-.94,11.55v74.4a55.2,55.2,0,0,0,1.14,11,22.18,22.18,0,0,0,4.2,9.43c2,2.51,5,3.79,9,3.79s7.26-1.28,9.25-3.79a21.21,21.21,0,0,0,4.09-9.42,60.81,60.81,0,0,0,1-11v-74.4a70.77,70.77,0,0,0-.94-11.55,20.49,20.49,0,0,0-4-9.52C227.86,217.77,224.68,216.49,220.39,216.49Z" style="fill:#263238"></path><path d="M333.77,362.9V321.2H283.05V296.47l44.22-103.32H361v105h17.39V321.2H361v41.7Zm-26.41-64.76h26.41V224.37Z" style="fill:#fff"></path><path d="M361,363.4H333.77a.5.5,0,0,1-.5-.5V321.7H283.05a.51.51,0,0,1-.5-.5V296.47a.65.65,0,0,1,0-.2L326.81,193a.51.51,0,0,1,.46-.3H361a.5.5,0,0,1,.5.5V297.64h16.89a.5.5,0,0,1,.5.5V321.2a.5.5,0,0,1-.5.5H361.52v41.2A.5.5,0,0,1,361,363.4Zm-26.75-1h26.25V321.2a.5.5,0,0,1,.5-.5h16.89V298.64H361a.5.5,0,0,1-.5-.5V193.65H327.6L283.55,296.57V320.7h50.22a.5.5,0,0,1,.5.5Zm-.5-63.76H307.36a.49.49,0,0,1-.41-.21.51.51,0,0,1-.06-.45l26.41-73.77a.5.5,0,0,1,.56-.33.49.49,0,0,1,.41.49v73.77A.5.5,0,0,1,333.77,298.64Zm-25.7-1h25.2V227.25Z" style="fill:#263238"></path></g><g id="freepik--Text--inject-106"><path d="M108.52,184.94a10.57,10.57,0,0,1-5.63-1.31,7.37,7.37,0,0,1-3-3.78A17,17,0,0,1,99,174V161.57a16.49,16.49,0,0,1,.9-5.77,7.14,7.14,0,0,1,3-3.67,13.15,13.15,0,0,1,11.32,0,7.24,7.24,0,0,1,3,3.67,16.24,16.24,0,0,1,.92,5.77v12.49a16.43,16.43,0,0,1-.92,5.77,7.55,7.55,0,0,1-3,3.78A10.46,10.46,0,0,1,108.52,184.94Zm0-4.47a3.24,3.24,0,0,0,2.24-.66,3.27,3.27,0,0,0,1-1.81,11.58,11.58,0,0,0,.25-2.5V160.18a11.29,11.29,0,0,0-.25-2.51,3.1,3.1,0,0,0-1-1.74,3.29,3.29,0,0,0-2.24-.64,3.24,3.24,0,0,0-2.18.64,3.07,3.07,0,0,0-1,1.74,11.29,11.29,0,0,0-.25,2.51V175.5a13,13,0,0,0,.23,2.5,3.15,3.15,0,0,0,1,1.81A3.24,3.24,0,0,0,108.52,180.47Z" style="fill:#263238"></path><path d="M131.64,184.94a10.53,10.53,0,0,1-5.62-1.31,7.27,7.27,0,0,1-3-3.78,16.76,16.76,0,0,1-.91-5.83V161.57a16.25,16.25,0,0,1,.91-5.77,7,7,0,0,1,3-3.67,13.13,13.13,0,0,1,11.31,0,7.24,7.24,0,0,1,3,3.67,16.24,16.24,0,0,1,.92,5.77v12.49a16.43,16.43,0,0,1-.92,5.77,7.55,7.55,0,0,1-3,3.78A10.44,10.44,0,0,1,131.64,184.94Zm0-4.47a3.24,3.24,0,0,0,2.24-.66,3.35,3.35,0,0,0,1-1.81,12.26,12.26,0,0,0,.24-2.5V160.18a12,12,0,0,0-.24-2.51,3.17,3.17,0,0,0-1-1.74,3.29,3.29,0,0,0-2.24-.64,3.2,3.2,0,0,0-2.17.64,3,3,0,0,0-1,1.74,11.91,11.91,0,0,0-.25,2.51V175.5a13,13,0,0,0,.23,2.5,3.15,3.15,0,0,0,1,1.81A3.27,3.27,0,0,0,131.64,180.47Z" style="fill:#263238"></path><path d="M145.73,184.49V151.22h9.77a9.46,9.46,0,0,1,4.87,1.11,6.58,6.58,0,0,1,2.75,3.23,13.21,13.21,0,0,1,.88,5.11,10.76,10.76,0,0,1-1.1,5.24,6.66,6.66,0,0,1-3.1,2.89,11.37,11.37,0,0,1-4.71.9h-3.28v14.79Zm6.08-19.06h2.3a5.62,5.62,0,0,0,2.56-.47,2.53,2.53,0,0,0,1.28-1.52,9.22,9.22,0,0,0,.35-2.81,13,13,0,0,0-.27-2.94,2.51,2.51,0,0,0-1.15-1.66,5.47,5.47,0,0,0-2.77-.54h-2.3Z" style="fill:#263238"></path><path d="M175.59,184.94a9.83,9.83,0,0,1-5-1.17,7.29,7.29,0,0,1-3-3.43,14.53,14.53,0,0,1-1.15-5.54l5.21-1a15.82,15.82,0,0,0,.48,3.41,4.84,4.84,0,0,0,1.19,2.28,2.85,2.85,0,0,0,2.11.8,2.37,2.37,0,0,0,2.1-.88,3.84,3.84,0,0,0,.61-2.24,6.09,6.09,0,0,0-1-3.57,15.37,15.37,0,0,0-2.63-2.8l-4.19-3.69a12.57,12.57,0,0,1-2.81-3.39,9.34,9.34,0,0,1-1-4.62,7.86,7.86,0,0,1,2.3-6.08,8.89,8.89,0,0,1,6.28-2.14,9.3,9.3,0,0,1,3.9.72,6.33,6.33,0,0,1,2.49,2,9.13,9.13,0,0,1,1.37,2.9,16.94,16.94,0,0,1,.58,3.43l-5.18.9a18,18,0,0,0-.34-2.79,3.94,3.94,0,0,0-1-1.93,2.64,2.64,0,0,0-2-.7,2.56,2.56,0,0,0-2.08.88,3.44,3.44,0,0,0-.71,2.2,5.08,5.08,0,0,0,.69,2.77,10.66,10.66,0,0,0,2,2.24l4.14,3.66a17.5,17.5,0,0,1,3.52,4,10.36,10.36,0,0,1,1.45,5.61,8.5,8.5,0,0,1-1,4.23,7.44,7.44,0,0,1-2.92,2.89A8.78,8.78,0,0,1,175.59,184.94Z" style="fill:#263238"></path><path d="M186.63,184.49v-5.42h5.43v5.42Zm1.73-7.8-1.68-25.43h5.58l-2,25.43Z" style="fill:#263238"></path></g><g id="freepik--Suitcase--inject-106"><path d="M336.19,383.5v7.15h3.73v-4.19a3.33,3.33,0,0,1,3.33-3.33h12.22a3.33,3.33,0,0,1,3.33,3.33v4.19h3.73V383.5a3.34,3.34,0,0,0-3.34-3.33H339.52A3.33,3.33,0,0,0,336.19,383.5Z" style="fill:#263238"></path><path d="M362.53,391.15H358.8a.5.5,0,0,1-.5-.5v-4.19a2.83,2.83,0,0,0-2.83-2.83H343.25a2.83,2.83,0,0,0-2.83,2.83v4.19a.5.5,0,0,1-.5.5h-3.73a.5.5,0,0,1-.5-.5V383.5a3.84,3.84,0,0,1,3.83-3.83H359.2A3.84,3.84,0,0,1,363,383.5v7.15A.5.5,0,0,1,362.53,391.15Zm-3.23-1H362V383.5a2.83,2.83,0,0,0-2.83-2.83H339.52a2.83,2.83,0,0,0-2.83,2.83v6.65h2.73v-3.69a3.82,3.82,0,0,1,3.83-3.83h12.22a3.83,3.83,0,0,1,3.83,3.83Z" style="fill:#263238"></path><path d="M304.92,388.7h70.54a4.7,4.7,0,0,1,4.7,4.7v56.7a3,3,0,0,1-3,3H303.24a3,3,0,0,1-3-3V393.4A4.7,4.7,0,0,1,304.92,388.7Z" style="fill:#263238"></path><path d="M377.13,453.63H303.24a3.53,3.53,0,0,1-3.52-3.53V393.4a5.21,5.21,0,0,1,5.2-5.2h70.54a5.21,5.21,0,0,1,5.2,5.2v56.7A3.53,3.53,0,0,1,377.13,453.63ZM304.92,389.2a4.21,4.21,0,0,0-4.2,4.2v56.7a2.53,2.53,0,0,0,2.52,2.53h73.89a2.54,2.54,0,0,0,2.53-2.53V393.4a4.21,4.21,0,0,0-4.2-4.2Z" style="fill:#263238"></path><path d="M314.69,388.7h70.54a4.7,4.7,0,0,1,4.7,4.7v56.7a3,3,0,0,1-3,3H313a3,3,0,0,1-3-3V393.4A4.7,4.7,0,0,1,314.69,388.7Z" style="fill:#8a8a8a"></path><path d="M386.91,453.63H313a3.53,3.53,0,0,1-3.53-3.53V393.4a5.22,5.22,0,0,1,5.2-5.2h70.54a5.22,5.22,0,0,1,5.21,5.2v56.7A3.54,3.54,0,0,1,386.91,453.63ZM314.69,389.2a4.21,4.21,0,0,0-4.2,4.2v56.7a2.54,2.54,0,0,0,2.53,2.53h73.89a2.54,2.54,0,0,0,2.53-2.53V393.4a4.21,4.21,0,0,0-4.21-4.2Z" style="fill:#263238"></path></g><g id="freepik--Character--inject-106"><path d="M410,262.16s-20.1,60.4-21.84,71.33-.62,24.51.42,31.38,11.75,66.18,11.75,66.18-2.65-.9-2.84,1,.47,10,.47,10-2.77,3.89-10.08,8.12-10.87,5.51-8.69,6.9,11.52,1.88,15.33,1.31,14.06-1.76,15.73-2,6.71.8,8.32-2.11.44-11.72.84-14.84-1.86-8.08-1.87-8.8-2-67.75-2-67.75l1.26-16.65s-.37,15.86,1.45,17.62,20.85,67.95,20.85,67.95l-1.85,2.91,2.3,6.4-1.81,4.11s-8.66,8.09-12.2,10.09-7.11,2.55-5.16,4.18,21.05.7,21.05.7l20-4.05s3-3.42,2.48-6.28-3.17-13.07-3.17-13.07.64-13.4-.09-13.86-4.43-5.39-4.71-7.3-2.36-39.34-4.56-45.63-4.93-16.14-4.93-16.14a6.08,6.08,0,0,0,1.65-3.25,30,30,0,0,0-.39-4.77s20.87-54.3,21.82-57.4,5.26-19.84,5.26-26.53-.48-11.71-.48-11.71-16.25,7.41-32.74,8.13-31.06-.24-31.06-.24Z" style="fill:#263238"></path><path d="M430.74,461c-4.86,0-9.67-.24-10.7-1.1a1.64,1.64,0,0,1-.72-1.38c.13-.91,1.28-1.42,3-2.2.9-.4,1.92-.85,2.93-1.42,3.27-1.85,11.17-9.15,12-9.95L439,441.1l-2.23-6.21a.5.5,0,0,1,.05-.43l1.72-2.73c-7.56-26.32-19.26-65.87-20.65-67.52-.8-.77-1.22-3.67-1.44-6.94l-.43,5.66c.09,2.68,2,67,2,67.7a11.85,11.85,0,0,0,.41,1.34c.66,1.94,1.77,5.19,1.46,7.54a38.75,38.75,0,0,0,0,4.81c.11,3.84.23,8.2-.87,10.2-1.36,2.46-4.77,2.38-7,2.33a11.89,11.89,0,0,0-1.66,0c-.78.13-3.4.46-6.43.84-3.41.42-7.28.9-9.31,1.21-3.91.58-13.31.1-15.66-1.39a1.58,1.58,0,0,1-.87-1.28c0-1.15,1.74-2.09,5.47-4.17,1.19-.65,2.56-1.41,4.1-2.3,6.34-3.68,9.25-7.12,9.82-7.84-.1-1.27-.64-8.14-.46-9.93a1.73,1.73,0,0,1,.78-1.35,2.85,2.85,0,0,1,1.94-.28c-1.25-6.9-10.65-59.07-11.62-65.45-1.23-8.06-2.07-21.15-.43-31.53,1.72-10.78,20.82-68.27,21.85-71.36l.47-4a.49.49,0,0,1,.53-.44c.15,0,14.74.95,31,.24s32.39-8,32.56-8.08a.5.5,0,0,1,.7.4c0,.05.48,5.12.48,11.76s-4.2,23.16-5.28,26.67c-.93,3.05-20.41,53.75-21.78,57.32a28.33,28.33,0,0,1,.37,4.74A6.2,6.2,0,0,1,447,354c.45,1.62,2.88,10.21,4.84,15.84,1.72,4.93,3.35,28.45,4.13,39.75.23,3.23.39,5.56.45,6,.26,1.76,3.93,6.6,4.49,6.95.26.17,1,.61.32,14.23.25,1,2.64,10.29,3.16,13,.59,3.06-2.47,6.55-2.6,6.7a.5.5,0,0,1-.27.16l-20,4.05C439.92,460.77,435.3,461,430.74,461Zm7.05-26.2L440,441a.5.5,0,0,1,0,.38l-1.82,4.1a.36.36,0,0,1-.11.16c-.36.34-8.74,8.16-12.29,10.16a32.62,32.62,0,0,1-3,1.46c-1.07.48-2.4,1.07-2.45,1.43,0,.05.06.22.37.48,1.31,1.09,13.4.94,20.71.58l19.74-4c.51-.62,2.7-3.43,2.26-5.72-.54-2.81-3.14-12.94-3.17-13a.38.38,0,0,1,0-.15c.28-6,.38-12.57.05-13.49-1-.8-4.55-5.57-4.85-7.58-.06-.45-.22-2.68-.45-6-.78-11.26-2.41-34.69-4.08-39.49-2.18-6.23-4.91-16.07-4.94-16.17a.48.48,0,0,1,.13-.48,5.68,5.68,0,0,0,1.51-2.93,30.74,30.74,0,0,0-.39-4.66.47.47,0,0,1,0-.26c.21-.54,20.88-54.32,21.82-57.37,1.07-3.49,5.23-19.92,5.23-26.38,0-5.17-.29-9.38-.42-11-3.19,1.37-17.72,7.25-32.27,7.89s-28-.06-30.65-.21l-.42,3.59s0,.07,0,.1c-.21.6-20.12,60.48-21.83,71.25-1.63,10.26-.79,23.23.43,31.22,1,6.78,11.64,65.57,11.75,66.17a.5.5,0,0,1-.17.46.49.49,0,0,1-.49.1,2.69,2.69,0,0,0-1.86,0,.72.72,0,0,0-.32.61c-.19,1.85.47,9.85.47,9.94a.5.5,0,0,1-.09.33c-.11.16-2.92,4-10.24,8.26-1.55.9-2.92,1.66-4.11,2.32-2.66,1.47-4.95,2.74-5,3.32,0,.07.1.21.4.4,2,1.25,11,1.84,15,1.25,2-.31,5.91-.79,9.33-1.21,3-.38,5.62-.71,6.39-.83a10.39,10.39,0,0,1,1.84,0c2.14,0,5.06.12,6.12-1.81,1-1.76.85-6.16.75-9.7a37,37,0,0,1,0-5c.27-2.12-.78-5.23-1.42-7.09a6.85,6.85,0,0,1-.46-1.64c0-.7-2-67.08-2-67.75l1.26-16.7a.5.5,0,0,1,.53-.46.49.49,0,0,1,.47.51c-.14,6.05.09,16.08,1.3,17.25,1.87,1.81,19,61.39,21,68.17a.58.58,0,0,1-.06.41Zm22.56-11.42ZM410,262.16h0Z" style="fill:#263238"></path><path d="M468.07,284.17a.39.39,0,0,1-.18,0c-8.35-3.19-8.44-19.14-8.44-19.82a.5.5,0,0,1,.5-.5.5.5,0,0,1,.5.5c0,.16.09,15.94,7.8,18.89a.5.5,0,0,1,.29.65A.52.52,0,0,1,468.07,284.17Z" style="fill:#fff"></path><path d="M470,280.82h-.11a.5.5,0,0,1-.38-.6,92.65,92.65,0,0,0,1.66-20.66.51.51,0,0,1,.48-.52.5.5,0,0,1,.52.48,94.31,94.31,0,0,1-1.68,20.92A.5.5,0,0,1,470,280.82Z" style="fill:#fff"></path><path d="M452.06,318.57l-.13,0a.5.5,0,0,1-.36-.59c0-.14.12-.48,4.05-8.83a.5.5,0,1,1,.9.42c-3.32,7.09-3.92,8.47-4,8.66A.5.5,0,0,1,452.06,318.57Z" style="fill:#fff"></path><path d="M457.42,307a.41.41,0,0,1-.21-.05.49.49,0,0,1-.24-.66c4.24-9,9.45-19.94,9.45-19.94l.91.43s-5.22,10.94-9.46,19.93A.48.48,0,0,1,457.42,307Z" style="fill:#fff"></path><path d="M418.86,331.79h-.11a.49.49,0,0,1-.37-.6l8.75-37.54L418,285.72A.51.51,0,0,1,418,285a.49.49,0,0,1,.7-.05l9.32,8.13a.5.5,0,0,1,.16.49l-8.82,37.83A.49.49,0,0,1,418.86,331.79Z" style="fill:#fff"></path><path d="M417,340h-.11a.5.5,0,0,1-.38-.6l.92-3.93a.49.49,0,0,1,.6-.37.5.5,0,0,1,.37.6l-.91,3.93A.5.5,0,0,1,417,340Z" style="fill:#fff"></path><path d="M371.07,175.6,347.14,186S361.42,156.3,362,154.56s-7.91-16.4-7.72-17,7.53-9.46,7.72-11.39,4.25-8.68,1.16-9.07S343.67,132,343.28,135.84s7.33,17,8.11,18.14-39.76,44.58-40.53,51.53,2.51,11.39,8.3,12.16,51.33-14.86,58.28-16.79S386.7,202,386.7,202s21.81,26.44,23.36,29.72.77,15.44-1,19.1-3.67,10-2.7,11a8,8,0,0,0,4.57,2.93c2.89.77,23,3.25,34.41,1.51s24.9-7.72,28-10,3.47-5,3.47-8.5-2.32-6.56-3.86-10-11.77-35.32-16-45.55-2.89-17.94-18.91-27S403.23,158,403.23,158Z" style="fill:#B9FF66"></path><path d="M435.58,267.4c-10.52,0-22.33-1.48-24.75-2.13a7.93,7.93,0,0,1-4.38-2.61c-.14-.15-.27-.3-.41-.44-1.39-1.39,1.26-8.74,2.6-11.57,1.74-3.67,2.36-15.72,1-18.68-1.5-3.19-23.06-29.35-23.28-29.62,0,0-2.27-2.79-8.75-1-1.77.49-6.12,1.9-11.64,3.68-21.46,6.94-42.76,13.66-46.84,13.12-6.16-.82-9.51-5.69-8.73-12.71.47-4.2,13.3-19.36,28.76-37.27,5.71-6.61,11.1-12.86,11.73-14.1-1.21-1.94-8.46-14.36-8.07-18.29.3-2.94,8.31-11,13.93-15.48,3.23-2.58,5.42-3.82,6.51-3.68a1.66,1.66,0,0,1,1.31.8c.79,1.34-.25,3.95-1.16,6.25a13.89,13.89,0,0,0-.87,2.56c-.14,1.37-2.94,5.14-6.05,9.22-.7.92-1.42,1.86-1.64,2.2.2.59,1.28,2.65,2.32,4.66,3.92,7.52,5.71,11.29,5.35,12.4-.53,1.56-11.59,24.63-14.31,30.3l22.68-9.87L403,157.57a.7.7,0,0,1,.19-.06c.19,0,19.13-1.81,35.11,7.23,12.64,7.16,14.61,13.5,16.89,20.84.64,2.06,1.3,4.18,2.23,6.42,2.53,6.09,7.13,19.7,10.83,30.64,2.45,7.25,4.57,13.51,5.19,14.9.42,1,.91,1.89,1.39,2.8,1.29,2.47,2.51,4.81,2.51,7.43,0,3.24-.28,6.35-3.67,8.9s-16.94,8.41-28.21,10.13A68.82,68.82,0,0,1,435.58,267.4Zm-53.92-67.66c3.89,0,5.37,1.89,5.44,2,.88,1.06,21.86,26.5,23.41,29.8,1.66,3.53.79,15.83-1,19.54-2,4.21-3.37,9.81-2.8,10.43l.45.47a7,7,0,0,0,3.9,2.33c2.51.67,22.58,3.27,34.21,1.5,11.33-1.73,24.84-7.76,27.76-9.94,2.76-2.08,3.27-4.36,3.27-8.1,0-2.38-1.16-4.61-2.4-7-.48-.92-1-1.87-1.42-2.86-.63-1.43-2.66-7.41-5.22-15-3.69-10.92-8.29-24.52-10.8-30.57-.95-2.29-1.62-4.44-2.26-6.51-2.22-7.14-4.14-13.3-16.44-20.27-15.09-8.55-32.92-7.24-34.41-7.11L371.31,176l0,0-23.93,10.42a.5.5,0,0,1-.56-.12.5.5,0,0,1-.09-.56c4.94-10.27,14.39-30.05,14.84-31.4.24-1-3.36-7.91-5.29-11.62-2.41-4.64-2.55-5-2.43-5.36a18.14,18.14,0,0,1,1.84-2.57c1.86-2.44,5.73-7.51,5.85-8.71a13.83,13.83,0,0,1,.94-2.83c.71-1.77,1.77-4.46,1.23-5.37a.66.66,0,0,0-.57-.32c-.58-.08-2.41.8-5.77,3.48-5.91,4.71-13.32,12.46-13.55,14.79-.35,3.51,6.85,16.06,8,17.81.42.63.12,1.19-11.92,15.13-11.17,12.94-28.05,32.5-28.52,36.73-.73,6.52,2.21,10.86,7.86,11.61,4.19.58,30.62-8,46.41-13.08,5.52-1.79,9.88-3.19,11.68-3.69A16,16,0,0,1,381.66,199.74ZM371.07,175.6h0Z" style="fill:#263238"></path><path d="M346,204.08h0a.51.51,0,0,1-.47-.53l.2-3a.49.49,0,0,1,.53-.47.5.5,0,0,1,.47.54l-.2,3A.5.5,0,0,1,346,204.08Z" style="fill:#263238"></path><path d="M341,205.82a.45.45,0,0,1-.16,0,.5.5,0,0,1-.32-.63l6.17-19.29a.5.5,0,0,1,.57-.34.49.49,0,0,1,.41.52l-.81,12.29a.51.51,0,0,1-.53.46.5.5,0,0,1-.47-.53l.54-8.21-4.93,15.41A.5.5,0,0,1,341,205.82Z" style="fill:#263238"></path><path d="M350.81,177.06h0c-9.77-.4-10.89-8.08-10.9-8.15a.5.5,0,0,1,1-.13c0,.28,1.05,6.92,9.95,7.28a.51.51,0,0,1,.48.52A.5.5,0,0,1,350.81,177.06Z" style="fill:#263238"></path><path d="M384.58,200.3a67,67,0,0,0-14.09-7" style="fill:#fff"></path><path d="M384.58,200.8a.6.6,0,0,1-.28-.08,66,66,0,0,0-14-6.89.5.5,0,0,1-.32-.63.49.49,0,0,1,.63-.32,68.44,68.44,0,0,1,14.21,7,.51.51,0,0,1,.14.7A.52.52,0,0,1,384.58,200.8Z" style="fill:#263238"></path><path d="M368.39,196.34h-.09c-.76-.13-1.54-.25-2.32-.36a.5.5,0,0,1,.14-1c.79.11,1.57.23,2.35.37a.5.5,0,0,1-.08,1Z" style="fill:#263238"></path><path d="M382.07,199.45l-.14,0c-.05,0-5-1.45-10.93-2.61a.48.48,0,0,1-.39-.58.5.5,0,0,1,.58-.4c6,1.17,11,2.61,11,2.63a.5.5,0,0,1-.14,1Z" style="fill:#263238"></path><path d="M418.74,239.78c-.22,0-.44-.07-1.61-1a.49.49,0,0,1-.06-.7.5.5,0,0,1,.7-.07,6.58,6.58,0,0,0,1.08.81.5.5,0,0,1,.39.49A.5.5,0,0,1,418.74,239.78Z" style="fill:#263238"></path><path d="M416,237.64a.54.54,0,0,1-.33-.12c-2.53-2.21-5.93-5.37-6-5.4a.48.48,0,0,1,0-.7.5.5,0,0,1,.71,0s3.42,3.18,5.94,5.38a.49.49,0,0,1,.05.7A.52.52,0,0,1,416,237.64Z" style="fill:#263238"></path><path d="M451.74,265.64a.49.49,0,0,1-.42-.23.5.5,0,0,1,.15-.69l17.18-10.81a.51.51,0,0,1,.69.16.49.49,0,0,1-.16.69L452,265.57A.54.54,0,0,1,451.74,265.64Z" style="fill:#263238"></path><path d="M451.36,251.17a.52.52,0,0,1-.29-.09.51.51,0,0,1-.13-.7c4.47-6.43,8.25-20,10.1-27.49a.5.5,0,0,1,1,.24c-1.87,7.57-5.68,21.25-10.24,27.82A.52.52,0,0,1,451.36,251.17Z" style="fill:#263238"></path><path d="M462.24,220.53l-.11,0a.5.5,0,0,1-.38-.6c.45-1.93.69-3.11.7-3.11a.5.5,0,1,1,1,.2s-.24,1.19-.69,3.14A.51.51,0,0,1,462.24,220.53Z" style="fill:#263238"></path><path d="M456.37,248.08a.45.45,0,0,1-.27-.08.5.5,0,0,1-.15-.69c2.82-4.31,6.46-20.14,6.5-20.3a.5.5,0,1,1,1,.23c-.15.65-3.72,16.15-6.63,20.61A.48.48,0,0,1,456.37,248.08Z" style="fill:#263238"></path><path d="M357.2,165c2.52-5.34,4.59-9.76,4.8-10.4.58-1.74-7.91-16.4-7.72-17s7.53-9.46,7.72-11.39,4.25-8.68,1.16-9.07S343.67,132,343.28,135.84s7.33,17,8.11,18.14c.16.25-1.53,2.38-4.28,5.66C348.18,162.26,350.8,165.58,357.2,165Z" style="fill:#fff"></path><path d="M355.71,165.53c-5.81,0-8.16-3.5-9.07-5.7a.5.5,0,0,1,.08-.51,47.6,47.6,0,0,0,4.13-5.24c-1.22-2-8.46-14.36-8.07-18.29.3-2.94,8.31-11,13.93-15.48,3.23-2.58,5.42-3.82,6.51-3.68a1.66,1.66,0,0,1,1.31.8c.79,1.34-.25,3.95-1.16,6.25a13.89,13.89,0,0,0-.87,2.56c-.14,1.37-2.94,5.14-6.05,9.22-.7.92-1.42,1.86-1.64,2.2.2.59,1.28,2.65,2.32,4.66,3.92,7.52,5.71,11.29,5.35,12.4-.08.21-.29.87-4.83,10.45a.52.52,0,0,1-.41.29C356.71,165.51,356.19,165.53,355.71,165.53Zm1.49-.57h0Zm-9.51-5.24c1.11,2.5,3.59,5.21,9.18,4.77,3.62-7.67,4.54-9.72,4.66-10.09.24-1-3.36-7.91-5.29-11.62-2.41-4.64-2.55-5-2.43-5.36a18.14,18.14,0,0,1,1.84-2.57c1.86-2.44,5.73-7.51,5.85-8.71a13.83,13.83,0,0,1,.94-2.83c.71-1.77,1.77-4.46,1.23-5.37a.66.66,0,0,0-.57-.32c-.58-.08-2.41.8-5.77,3.48-5.91,4.71-13.32,12.46-13.55,14.79-.35,3.51,6.85,16.06,8,17.81C352.08,154.12,352.22,154.33,347.69,159.72Z" style="fill:#263238"></path><path d="M349.2,137.86a.54.54,0,0,1-.51-.42c-.15-.59,1.43-4.1,4.7-10.43a.5.5,0,1,1,.89.46c-2.23,4.31-4.56,9.16-4.61,9.81a.46.46,0,0,1-.37.57Z" style="fill:#263238"></path><path d="M345.09,136.94a.51.51,0,0,1-.49-.37c-.38-1.33,3.53-7.09,5.23-9.5a.51.51,0,0,1,.7-.13.5.5,0,0,1,.12.7c-2.52,3.57-5.18,7.9-5.08,8.67a.5.5,0,0,1-.35.61Z" style="fill:#263238"></path><polygon points="391.72 197.4 399.44 213.04 403.11 213.23 406.2 195.67 403.69 191.62 401.95 202.62 397.32 202.42 391.92 194.32 391.72 197.4" style="fill:#8a8a8a"></polygon><path d="M403.11,213.73h0l-3.66-.19a.51.51,0,0,1-.43-.28l-7.72-15.63a.58.58,0,0,1,0-.26l.2-3.08a.49.49,0,0,1,.91-.25l5.26,7.89,3.94.17,1.66-10.56a.52.52,0,0,1,.4-.42.49.49,0,0,1,.52.23l2.51,4.05a.49.49,0,0,1,.07.35l-3.09,17.57A.49.49,0,0,1,403.11,213.73Zm-3.35-1.18,2.93.16,3-16.94L404,193l-1.53,9.67a.47.47,0,0,1-.51.42l-4.63-.19a.5.5,0,0,1-.4-.22l-4.58-6.87-.09,1.47Z" style="fill:#263238"></path><polygon points="399.44 213.04 393.04 259.63 400.44 275.19 408.37 259.02 403.11 213.23 399.44 213.04" style="fill:#8a8a8a"></polygon><path d="M400.44,275.69h0a.49.49,0,0,1-.45-.29l-7.4-15.56a.55.55,0,0,1,0-.28L399,213a.5.5,0,0,1,.52-.43l3.66.19a.5.5,0,0,1,.48.44L408.86,259a.46.46,0,0,1,0,.28l-7.93,16.17A.5.5,0,0,1,400.44,275.69Zm-6.88-16.14L400.45,274l7.4-15.11-5.19-45.22-2.79-.15Z" style="fill:#263238"></path><polygon points="398.29 210.71 404.21 206.94 406.05 196.52 402.56 198.73 401.95 202.62 397.32 202.42 397.15 202.18 394.81 203.67 398.29 210.71" style="fill:#263238"></polygon><polygon points="403.11 213.23 403.12 213.18 403.04 213.23 403.11 213.23" style="fill:#263238"></polygon><polygon points="404.69 226.97 396.84 231.97 395.45 242.12 405.68 235.6 404.69 226.97" style="fill:#263238"></polygon><polygon points="404.09 221.82 403.11 213.23 403.04 213.23 399.07 215.75 397.68 225.9 404.09 221.82" style="fill:#263238"></polygon><polygon points="406.27 240.76 394.62 248.18 393.22 258.33 407.26 249.39 406.27 240.76" style="fill:#263238"></polygon><polygon points="405.19 265.51 408.37 259.02 407.86 254.55 394.63 262.97 398.01 270.08 405.19 265.51" style="fill:#263238"></polygon><path d="M386.32,179.46s-1.55,9.45-1.35,13.7,2.31,11.77,2.31,11.77l9.46-10.81L412.56,204S412,183.9,412,183.32s-3.67-22.2-4.83-24.32a6.33,6.33,0,0,0-6-2.9C399.44,156.49,386.32,179.46,386.32,179.46Z" style="fill:#B9FF66"></path><path d="M387.28,205.43h-.11a.5.5,0,0,1-.37-.35c-.09-.31-2.14-7.63-2.33-11.89s1.29-13.42,1.36-13.8a.48.48,0,0,1,.05-.17c4-7,13.43-23.2,15.19-23.59a6.78,6.78,0,0,1,6.53,3.14c1.28,2.36,4.89,24.4,4.89,24.56,0,.56.57,20.43.57,20.63a.48.48,0,0,1-.25.45.49.49,0,0,1-.51,0l-15.46-9.62-9.18,10.49A.5.5,0,0,1,387.28,205.43Zm-.48-25.8c-.16,1-1.51,9.58-1.33,13.51a64.1,64.1,0,0,0,2,10.76l8.84-10.11a.51.51,0,0,1,.64-.09l15,9.35c-.12-4-.55-19.22-.55-19.73-.07-1.09-3.72-22.17-4.77-24.08a5.85,5.85,0,0,0-5.43-2.65C400,157.22,391.72,171,386.8,179.63Z" style="fill:#263238"></path><path d="M359.66,126.74s-.5,14.14-.17,19.79-.5,10.15,1,14.8S363.65,175,365.14,178a10.3,10.3,0,0,0,9.32,5.82c4.66,0,9.81-3.83,12.31-6.32s6.82-6,9.14-10.48.34-15.8.67-19,1-8.65,1-8.65,3.32-8.15.66-12-14.47-8.15-23.45-7.31A27.82,27.82,0,0,0,359.66,126.74Z" style="fill:#fff"></path><path d="M374.46,184.29a10.75,10.75,0,0,1-9.76-6.1c-.92-1.83-1.88-5.78-2.81-9.6-.63-2.57-1.27-5.22-1.88-7.1-1-3.17-1-6.3-.95-9.61,0-1.69,0-3.44-.07-5.32-.33-5.61.16-19.7.17-19.84a.49.49,0,0,1,.15-.34,28.07,28.07,0,0,1,15.44-6.79c9-.84,21.12,3.53,23.9,7.53s-.25,11.55-.58,12.38c-.08.63-.68,5.65-1,8.58a36.12,36.12,0,0,0,.17,4.84c.32,4.68.77,11.09-.89,14.3-1.9,3.66-5,6.61-7.56,9-.61.57-1.18,1.11-1.68,1.61C384.14,180.8,379,184.29,374.46,184.29ZM360.15,127c-.06,1.78-.47,14.34-.16,19.53.11,1.92.09,3.68.07,5.39,0,3.37-.07,6.27.9,9.29.62,1.91,1.27,4.59,1.9,7.18.92,3.76,1.87,7.66,2.73,9.38a9.87,9.87,0,0,0,8.87,5.55c4.56,0,9.66-3.88,12-6.18.51-.5,1.09-1.05,1.71-1.63,2.46-2.32,5.53-5.21,7.35-8.72,1.53-3,1.1-9.21.78-13.78a36.84,36.84,0,0,1-.17-5c.33-3.13,1-8.61,1-8.66a.5.5,0,0,1,0-.13c0-.08,3.19-7.94.71-11.5-2.63-3.79-14.25-7.92-23-7.11A27.59,27.59,0,0,0,360.15,127Z" style="fill:#263238"></path><path d="M368.24,160.76a6.59,6.59,0,0,1-2.71-.34c-.32-.22-1.31-.88,2.75-12.74L367,142.83a.5.5,0,1,1,1-.25l1.33,5a.57.57,0,0,1,0,.29c-1.74,5.06-3.35,10.75-3.12,11.76.8.3,5.08.09,8.75-.28a.51.51,0,0,1,.55.45.5.5,0,0,1-.45.54C373.75,160.46,370.6,160.76,368.24,160.76Z" style="fill:#263238"></path><path d="M374,137.55s-.17,1.83.5,2.16,7.15,2.83,8.15,2.5-.33-1.67-1.17-2S373.63,136.05,374,137.55Z" style="fill:#263238"></path><path d="M382.4,142.73c-1.9,0-7.88-2.43-8.16-2.57-.87-.43-.83-2-.78-2.59a.71.71,0,0,1,.26-.69c.64-.5,2.24,0,6.82,2.33l1.09.54c.65.26,1.86,1.2,1.83,2.07a.92.92,0,0,1-.69.86A1.27,1.27,0,0,1,382.4,142.73Zm-7.95-5a2.64,2.64,0,0,0,.23,1.56c1,.5,7,2.68,7.78,2.47a2.74,2.74,0,0,0-1.2-1.06c-.17-.06-.6-.28-1.17-.56C378.91,139.52,375.48,137.8,374.45,137.7Z" style="fill:#263238"></path><path d="M367.47,140.21s-5.32,3-6.32,3.16.67-2,.67-2,4-4.49,5-3.82S367.47,140.21,367.47,140.21Z" style="fill:#263238"></path><path d="M361.05,143.88a.7.7,0,0,1-.62-.33c-.11-.18-.4-.67,1-2.48,2-2.22,4.54-4.69,5.67-3.94s.92,2.93.88,3.16a.55.55,0,0,1-.25.36c-.9.5-5.45,3-6.49,3.21Zm5.46-5.92c-.51,0-2.52,1.72-4.32,3.75a9.24,9.24,0,0,0-.67,1c1.16-.46,3.75-1.85,5.49-2.82.05-.56,0-1.6-.48-1.93Zm1,2.25h0Z" style="fill:#263238"></path><path d="M379.69,148.91a6.16,6.16,0,0,1-4.1-1.7.5.5,0,0,1,.73-.69,4.78,4.78,0,0,0,6,.58.51.51,0,0,1,.69.17.52.52,0,0,1-.17.69A6.05,6.05,0,0,1,379.69,148.91Z" style="fill:#263238"></path><path d="M364.17,149.2a4.68,4.68,0,0,1-2.28-.58.49.49,0,0,1-.16-.69.49.49,0,0,1,.68-.16,3.82,3.82,0,0,0,4.71-.93.5.5,0,1,1,.71.71A5.08,5.08,0,0,1,364.17,149.2Z" style="fill:#263238"></path><path d="M396.58,148c.3-2.87.87-7.63,1-8.5l-3.31-1.81s1,12.3-.33,19.12-3.66,9-6.32,10-4-.33-4-.33-6.32-6-12-6.15c-4.94-.15-8.73,5.28-9.61,6.66,1.05,4.28,2.12,9,3.12,11a10.3,10.3,0,0,0,9.32,5.82c4.66,0,9.81-3.83,12.31-6.32s6.82-6,9.14-10.48S396.25,151.19,396.58,148Z" style="fill:#263238"></path><path d="M374.46,184.29a10.75,10.75,0,0,1-9.76-6.1c-.92-1.83-1.88-5.78-2.81-9.61l-.36-1.46a.54.54,0,0,1,.06-.39c1.06-1.65,5-7,10.06-6.89,5.77.17,12,6,12.3,6.29.05.05,1.17,1.09,3.47.22s4.64-2.61,6-9.6c1.3-6.68.33-18.87.32-19a.5.5,0,0,1,.74-.48l3.31,1.81a.52.52,0,0,1,.26.5c-.11.87-.68,5.63-1,8.49h0a36.12,36.12,0,0,0,.17,4.84c.32,4.68.77,11.09-.89,14.3-1.9,3.66-5,6.61-7.56,9-.61.57-1.18,1.11-1.68,1.61C384.14,180.8,379,184.29,374.46,184.29Zm-11.91-17.2.31,1.26c.92,3.77,1.87,7.67,2.73,9.39a9.87,9.87,0,0,0,8.87,5.55c4.56,0,9.66-3.88,12-6.18.51-.5,1.09-1.05,1.71-1.63,2.46-2.32,5.53-5.21,7.35-8.72,1.53-3,1.1-9.21.78-13.78a36.84,36.84,0,0,1-.17-5h0c.28-2.61.77-6.78.94-8.17l-2.2-1.21c.2,3,.72,12.54-.41,18.34-1.46,7.48-4.17,9.43-6.64,10.35-2.92,1.1-4.45-.38-4.52-.45s-6.24-5.85-11.63-6C367.11,160.68,363.49,165.68,362.55,167.09Zm34-19.06h0Z" style="fill:#263238"></path><path d="M379.61,171.48s-3.49-5-6.81-5.82-6.82,5.65-5.66,6.82,2.83-3.16,6-1.83S378.12,174.14,379.61,171.48Z" style="fill:#fff"></path><path d="M377.92,173.24a6.71,6.71,0,0,1-2.89-1.08,21.61,21.61,0,0,0-2.1-1c-1.53-.65-2.66.29-3.65,1.12-.78.67-1.68,1.42-2.49.6s-.21-2.59.59-4c1.15-2,3.29-4.21,5.54-3.65,3.46.87,7,5.81,7.1,6a.51.51,0,0,1,0,.53A2.41,2.41,0,0,1,377.92,173.24Zm-6-3.35a3.53,3.53,0,0,1,1.39.3,22.34,22.34,0,0,1,2.19,1.09c1.94,1.05,2.73,1.4,3.5.23-.76-1-3.65-4.7-6.34-5.37-1.59-.39-3.36,1.31-4.42,3.18-.86,1.51-.95,2.61-.76,2.8s.46-.07,1.15-.65A5.24,5.24,0,0,1,371.93,169.89Z" style="fill:#263238"></path><path d="M359.16,117.92s-5-1.49-8.15.17a11.68,11.68,0,0,0-4.66,5.32l6.49.5,3,1.5s-1.33,0-2,1.83a41.11,41.11,0,0,0-1.16,4,18.06,18.06,0,0,1,6-1.83,99.77,99.77,0,0,0,10.81-2.66l.83,5.49a37.32,37.32,0,0,1,7.49-3.66,13,13,0,0,0,5.32-3.16s8.65,3.32,8.48,4.82-3.16,5.16-2.16,6.32,3.66,3.66,3.66,3.66l10,5.66a46.33,46.33,0,0,0,5.49-14.64c1.82-9-6.49-18.63-13.48-21.29s-12.14-1.66-16.46-1.5a50,50,0,0,1-10.32-1.16l4,4.16a52.58,52.58,0,0,1-5.49,1.83c-1.67.33-4.49,1.16-5.16.83s-3-1.83-3-1.83S357.49,117.26,359.16,117.92Z" style="fill:#263238"></path><path d="M403.07,146.37a.55.55,0,0,1-.25-.07l-10-5.65-.09-.07c-.11-.11-2.7-2.53-3.7-3.7-.84-1,.12-2.75,1-4.46a9,9,0,0,0,1-2.24c-.13-.66-3.69-2.56-7.86-4.19a13.56,13.56,0,0,1-5.3,3.06,36.4,36.4,0,0,0-7.36,3.6.51.51,0,0,1-.48,0,.48.48,0,0,1-.28-.38l-.75-4.92a92.37,92.37,0,0,1-10.33,2.52,17.69,17.69,0,0,0-5.81,1.76.5.5,0,0,1-.55,0,.51.51,0,0,1-.19-.51,39.82,39.82,0,0,1,1.19-4.05,3.44,3.44,0,0,1,1.23-1.72l-1.9-.95-6.39-.49a.5.5,0,0,1-.39-.24.51.51,0,0,1,0-.45,12.07,12.07,0,0,1,4.88-5.57c2.3-1.21,5.43-.87,7.19-.52a11.87,11.87,0,0,1,.21-5,.55.55,0,0,1,.3-.35.5.5,0,0,1,.46,0s2.31,1.48,2.95,1.8a12.7,12.7,0,0,0,3.36-.55c.53-.12,1-.24,1.47-.32a42.24,42.24,0,0,0,4.7-1.54l-3.47-3.62a.49.49,0,0,1-.07-.59.51.51,0,0,1,.54-.24,50.42,50.42,0,0,0,10.19,1.15c.73,0,1.48-.08,2.26-.13,3.79-.26,8.5-.59,14.4,1.66,6.9,2.63,15.7,12.45,13.79,21.86a46.55,46.55,0,0,1-5.56,14.81A.53.53,0,0,1,403.07,146.37Zm-9.68-6.56,9.5,5.38a47.73,47.73,0,0,0,5.17-14.06c1.82-8.9-6.58-18.22-13.15-20.72-5.7-2.17-10.1-1.87-14-1.6-.79,0-1.55.1-2.29.13a44.11,44.11,0,0,1-8.87-.86l2.89,3a.53.53,0,0,1,.13.45.51.51,0,0,1-.31.36,51.26,51.26,0,0,1-5.57,1.86c-.42.08-.92.2-1.44.32-2.11.49-3.43.77-4,.46s-1.68-1-2.43-1.46c-.32,1.8-.41,4.08.34,4.38a.5.5,0,0,1-.33.94s-4.83-1.41-7.77.13a10.73,10.73,0,0,0-4.12,4.44l5.76.44a.61.61,0,0,1,.18,0l3,1.5a.5.5,0,0,1,.27.56.51.51,0,0,1-.49.39s-1,0-1.53,1.5c-.36,1-.68,2.12-.88,2.91a19.78,19.78,0,0,1,5.17-1.42,98,98,0,0,0,10.73-2.64.52.52,0,0,1,.42.06.47.47,0,0,1,.22.34l.72,4.74a34.82,34.82,0,0,1,7-3.31,12.45,12.45,0,0,0,5.1-3,.51.51,0,0,1,.55-.13c3.36,1.3,9,3.71,8.8,5.35A9,9,0,0,1,391,132.9c-.58,1.07-1.55,2.87-1.16,3.33C390.71,137.28,393,139.48,393.39,139.81Z" style="fill:#263238"></path><path d="M399.24,155a12.11,12.11,0,0,0,3.83-3.32c1.33-2,5.15-9.65.66-11.81-3.4-1.64-5.65,1.3-6.55,2.82-.2,1.74-.44,3.8-.6,5.33-.33,3.16,1.66,14.47-.67,19s-6.65,8-9.14,10.48a27.7,27.7,0,0,1-3.88,3.17l4.21,1.15a31.45,31.45,0,0,0,5,8.82,78.66,78.66,0,0,0,6.82,7.65s1-6,3.66-19.3.66-21,.66-21Z" style="fill:#fff"></path><path d="M398.91,198.76a.52.52,0,0,1-.35-.14,79.83,79.83,0,0,1-6.86-7.7,32.69,32.69,0,0,1-5-8.72l-3.95-1.08a.49.49,0,0,1-.36-.4.51.51,0,0,1,.21-.5,26.56,26.56,0,0,0,3.8-3.11c.51-.5,1.09-1.05,1.71-1.63,2.46-2.32,5.53-5.21,7.35-8.72,1.53-3,1.1-9.21.78-13.78a36.84,36.84,0,0,1-.17-5c.16-1.53.4-3.6.6-5.33a.68.68,0,0,1,.07-.2c.89-1.52,3.38-4.86,7.2-3a4,4,0,0,1,2.21,2.65c.93,3.4-1.69,8.4-2.68,9.88a11.66,11.66,0,0,1-3.34,3.1l3.39,2.55a.52.52,0,0,1,.19.27c.08.32,2,7.92-.66,21.18s-3.65,19.22-3.66,19.28a.51.51,0,0,1-.33.39A.45.45,0,0,1,398.91,198.76Zm-14.86-18.33,3.18.88a.52.52,0,0,1,.35.33,31.29,31.29,0,0,0,4.9,8.66,84.32,84.32,0,0,0,6.1,6.93c.38-2.17,1.45-8.13,3.5-18.36,2.39-12,1-19.39.71-20.57l-3.85-2.89a.48.48,0,0,1-.2-.43.52.52,0,0,1,.27-.41,11.68,11.68,0,0,0,3.64-3.16c1.16-1.74,3.31-6.25,2.54-9.06a3,3,0,0,0-1.68-2c-2.9-1.4-4.89.94-5.84,2.54-.2,1.71-.44,3.72-.59,5.21a36.12,36.12,0,0,0,.17,4.84c.32,4.68.77,11.09-.89,14.3-1.9,3.66-5,6.61-7.56,9-.61.57-1.18,1.11-1.68,1.61A26.78,26.78,0,0,1,384.05,180.43Z" style="fill:#263238"></path><path d="M387.1,181.79l5.82,1.66-2.83,4.16A41.24,41.24,0,0,1,387.1,181.79Z" style="fill:#263238"></path><path d="M390.09,188.11h0a.46.46,0,0,1-.41-.24,40.6,40.6,0,0,1-3-5.92.48.48,0,0,1,.11-.5.49.49,0,0,1,.5-.14l5.82,1.66a.51.51,0,0,1,.33.31.5.5,0,0,1-.06.46l-2.82,4.15A.51.51,0,0,1,390.09,188.11Zm-2.15-5.56a46.12,46.12,0,0,0,2.18,4.13l2-2.93Z" style="fill:#263238"></path><path d="M422.21,177.33,427,298l10.81.77s9.26-39,12-52.3,3.67-21.8,3.48-32.42-2.71-32.61-2.71-32.61-5.59-9.46-10.42-12.74" style="fill:#B9FF66"></path><path d="M437.85,299.22h0L427,298.45a.5.5,0,0,1-.46-.48l-4.83-120.62a.51.51,0,0,1,.48-.52.5.5,0,0,1,.52.48l4.81,120.18,9.94.7c1-4.22,9.34-39.44,11.86-51.87,2.75-13.53,3.65-22,3.47-32.31-.19-10.09-2.5-30.78-2.69-32.46-.59-1-5.79-9.48-10.22-12.49a.5.5,0,0,1,.56-.82c4.86,3.3,10.34,12.5,10.57,12.89a.48.48,0,0,1,.07.2c0,.22,2.51,22.15,2.71,32.66s-.73,18.92-3.49,32.53c-2.67,13.18-11.88,51.93-12,52.32A.48.48,0,0,1,437.85,299.22Z" style="fill:#263238"></path><path d="M444.16,200.39l-.15,0a.5.5,0,0,1-.32-.63c1-3.15,1.59-5.18,1.59-5.18a.51.51,0,0,1,.62-.34.5.5,0,0,1,.34.62s-.6,2-1.6,5.2A.5.5,0,0,1,444.16,200.39Z" style="fill:#263238"></path><path d="M425.11,247.7a.71.71,0,0,1-.2,0,.51.51,0,0,1-.26-.66c.05-.11,4.69-10.95,10-22.78,3-6.59,5.9-15,7.83-20.85a.49.49,0,0,1,.63-.32.5.5,0,0,1,.32.63c-1.94,5.89-4.87,14.32-7.87,20.95-5.34,11.82-10,22.65-10,22.76A.51.51,0,0,1,425.11,247.7Z" style="fill:#263238"></path><path d="M437.07,233.41a.49.49,0,0,1-.44-.73,18.13,18.13,0,0,0,.85-2,.49.49,0,0,1,.64-.29.5.5,0,0,1,.3.64,21.42,21.42,0,0,1-.9,2.12A.49.49,0,0,1,437.07,233.41Z" style="fill:#263238"></path><path d="M439,228.1l-.14,0a.5.5,0,0,1-.34-.63c2.21-7.36,4.59-18.65,4.62-18.76a.5.5,0,0,1,.59-.39.51.51,0,0,1,.39.59c0,.12-2.42,11.45-4.64,18.85A.49.49,0,0,1,439,228.1Z" style="fill:#263238"></path><path d="M440,288.42h0L427,287.84a.5.5,0,0,1-.48-.52.46.46,0,0,1,.52-.48l12.93.58a.5.5,0,0,1,0,1Z" style="fill:#263238"></path><path d="M427,298s-1.51,18.62-1.51,20.23,1.29,13.36,1.61,14.33,8.53,7.08,9.33,7.08,5.32.48,6.12-.81,1.13-2.09,0-2.41a20.26,20.26,0,0,0-4.18-.16l-1.77-.81s6.59-.64,7.08-.8,2.89-1.77,3.38-2.9a3,3,0,0,0-.33-2.41s2.42-2.26,2.58-3.06.32-3.06-.8-2.74a8.76,8.76,0,0,0-2.74,2.09h-4s4.18-2.73,4.66-3.54a13.78,13.78,0,0,0,1-5.15c-.16-1-2.25.16-2.74,1.13s-1.29,3.54-1.29,3.54l-4.82.64L437,320.11s3.22-10,3.22-12.07-2.33-9.32-2.33-9.32Z" style="fill:#fff"></path><path d="M439,340.17c-.61,0-1.26,0-1.91-.06l-.58,0c-1.09,0-9.43-6.32-9.8-7.43S425,319.8,425,318.18s1.45-19.51,1.51-20.27a.51.51,0,0,1,.53-.46l10.81.77a.51.51,0,0,1,.44.35c.1.3,2.36,7.33,2.36,9.47,0,2-2.66,10.38-3.17,12l1.28,1.65,4.22-.56a34,34,0,0,1,1.23-3.31,3.57,3.57,0,0,1,2.88-1.76.89.89,0,0,1,.79.77,13.88,13.88,0,0,1-1,5.49,17.8,17.8,0,0,1-3.45,2.78h2.16a8.2,8.2,0,0,1,2.82-2.07,1.05,1.05,0,0,1,1,.22c.85.79.42,3,.4,3.1-.16.78-1.68,2.32-2.45,3.06a3.2,3.2,0,0,1,.17,2.51c-.56,1.3-3.12,3-3.68,3.17-.36.12-3,.41-5.09.62a17,17,0,0,1,3.94.2,1.38,1.38,0,0,1,1,.8c.27.68-.19,1.5-.73,2.36S440.86,340.17,439,340.17Zm-2.39-1.08.53,0c3,.16,4.72,0,5.07-.59.49-.8.71-1.29.64-1.47s-.13-.13-.36-.2a18.71,18.71,0,0,0-4-.14.37.37,0,0,1-.23,0l-1.77-.8a.5.5,0,0,1-.29-.54.52.52,0,0,1,.45-.42c2.48-.24,6.57-.66,7-.78s2.67-1.66,3.08-2.62a2.47,2.47,0,0,0-.29-1.95.5.5,0,0,1,.08-.63,12.39,12.39,0,0,0,2.43-2.79,3.49,3.49,0,0,0-.1-2.17,7.81,7.81,0,0,0-2.58,2,.49.49,0,0,1-.37.16h-4a.49.49,0,0,1-.48-.35.49.49,0,0,1,.2-.56,28.72,28.72,0,0,0,4.51-3.38,13.86,13.86,0,0,0,.9-4.81,3,3,0,0,0-1.79,1.26c-.46.92-1.25,3.45-1.26,3.47a.51.51,0,0,1-.41.35l-4.83.64a.48.48,0,0,1-.46-.19l-1.61-2.09a.5.5,0,0,1-.08-.46c.89-2.76,3.2-10.27,3.2-11.92s-1.76-7.43-2.21-8.84l-10-.71c-.24,3-1.47,18.27-1.47,19.69,0,1.67,1.3,13.32,1.58,14.17.44.86,7.85,6.49,8.92,6.74Z" style="fill:#263238"></path><path d="M438.56,326.36a4.44,4.44,0,0,1-1.28-.14c-1-.34-4.07-3-4.67-3.47a.52.52,0,0,1-.06-.71.51.51,0,0,1,.71-.05,29.43,29.43,0,0,0,4.34,3.28,15.45,15.45,0,0,0,4.11-.18.51.51,0,0,1,.57.42.5.5,0,0,1-.42.57A26.79,26.79,0,0,1,438.56,326.36Z" style="fill:#263238"></path><path d="M437.76,331.24c-1.56,0-6.31-4.13-7.25-5a.48.48,0,0,1,0-.7.49.49,0,0,1,.7-.05c2.62,2.31,5.8,4.71,6.59,4.71,1.11,0,6.32-.95,8.92-1.45a.51.51,0,0,1,.59.4.51.51,0,0,1-.4.59C446.56,329.84,439.24,331.24,437.76,331.24Z" style="fill:#263238"></path><path d="M436.63,335.9a.51.51,0,0,1-.2,0s-1.76-.8-2.69-1.11-3.63-3.41-4.41-4.34a.49.49,0,0,1,.06-.7.51.51,0,0,1,.71.06c1.5,1.81,3.44,3.86,4,4,1,.33,2.71,1.11,2.78,1.15a.5.5,0,0,1-.21.95Z" style="fill:#263238"></path></g></svg>